<?xml version="1.0" encoding="UTF-8"?>
<svg version="1.1" xmlns="http://www.w3.org/2000/svg" width="544" height="816">
<path d="M0 0 C1.07282227 0.24443848 2.14564453 0.48887695 3.25097656 0.74072266 C10.62167402 2.48534022 17.41150158 4.69966719 24.6875 7.125 C24.6875 24.615 24.6875 42.105 24.6875 60.125 C16.6875 60.125 16.6875 60.125 14.421875 58.1953125 C12.19622702 54.25531405 10.56564691 50.21497651 8.9375 46 C2.42729387 29.90613276 -6.23604521 20.08617295 -22.3125 13.125 C-32.09597427 10.24025836 -45.84014156 10.6838421 -55.11328125 14.7890625 C-60.79938783 18.243145 -65.86544989 23.44756337 -67.8671875 29.91796875 C-69.67837416 38.89446403 -68.71136616 48.42987604 -64 56.32421875 C-53.95106781 69.28082808 -36.03076174 76.4607444 -21.92034912 84.15704346 C-11.10544721 90.05859488 -0.52480815 96.22101373 9.6875 103.125 C10.28320801 103.5276709 10.87891602 103.9303418 11.49267578 104.34521484 C24.70918966 113.42088361 33.92817302 123.67476493 37.28833008 139.61108398 C39.30101357 152.28668146 38.98346329 166.3339874 33.6875 178.125 C33.29820312 179.03765625 32.90890625 179.9503125 32.5078125 180.890625 C25.23356913 195.95562606 11.5803008 207.68144199 -4.02416992 213.41723633 C-7.088368 214.45062608 -10.18477297 215.30697908 -13.3125 216.125 C-14.23804688 216.36992187 -15.16359375 216.61484375 -16.1171875 216.8671875 C-39.46631197 221.80772688 -63.87842242 216.84876812 -86 209.25 C-86.65202393 209.02989258 -87.30404785 208.80978516 -87.97583008 208.58300781 C-94.4698165 206.27881963 -100.0014117 203.28054415 -106.3125 200.125 C-106.3125 182.635 -106.3125 165.145 -106.3125 147.125 C-99.3125 147.125 -99.3125 147.125 -96.640625 149.0625 C-93.74865434 152.86670302 -91.95521551 156.75955721 -90.0625 161.125 C-81.76872299 179.33820401 -71.1134914 190.94993888 -53.3125 200.125 C-43.42540785 203.42069738 -27.95715836 202.88767222 -18.25 199.0625 C-15.62246747 197.72332599 -15.62246747 197.72332599 -13.3125 196.125 C-12.55195313 195.61710938 -11.79140625 195.10921875 -11.0078125 194.5859375 C-4.78729556 189.77813869 -0.80947962 182.84941485 0.6875 175.125 C1.60230644 165.87195778 0.02922332 157.61904171 -5.578125 150.078125 C-15.73115944 138.46537133 -32.50761506 132.08585195 -45.94563293 124.97821045 C-51.98009261 121.78127338 -57.97316164 118.51357585 -63.9375 115.1875 C-64.84177734 114.6927417 -65.74605469 114.1979834 -66.67773438 113.68823242 C-82.85284138 104.61015021 -95.83744802 92.4243681 -101.75 74.5 C-105.98834014 57.96681973 -103.61079474 40.70301026 -95.640625 25.68359375 C-86.382197 10.65319246 -71.34175275 1.23305592 -54.56640625 -3.18359375 C-36.23710702 -7.07829479 -17.99810112 -4.10676035 0 0 Z " fill="#FFFFFF" transform="translate(371.3125,270.875)"/>
<path d="M0 0 C29.37 0 58.74 0 89 0 C89 1.98 89 3.96 89 6 C86.14034355 7.90643763 84.3858199 8.5047285 81.125 9.3125 C75.35885598 10.98275132 72.6191359 13.62912243 69.25 18.5625 C66.67971052 23.57456449 66.69136418 28.6293886 66.45288086 34.15698242 C66.41091804 35.11481975 66.36895521 36.07265707 66.32572079 37.05951977 C65.81690325 49.98220623 65.81293174 62.91428497 65.77020454 75.84505653 C65.75443016 80.59401928 65.73049476 85.34292173 65.70530701 90.09184265 C65.63492093 103.57722127 65.57432673 117.06263051 65.52319336 130.5480957 C65.49472462 138.03758485 65.45927763 145.52700991 65.41653961 153.01643151 C65.39438933 156.95642965 65.37577334 160.89636997 65.36609077 164.83642006 C65.28717645 195.71099585 64.76897031 223.58851906 42 247 C41.42378906 247.63808594 40.84757812 248.27617188 40.25390625 248.93359375 C30.72335426 259.19550704 16.26574493 266.41792999 2.18847656 267.14526367 C-1.12445147 267.16994345 -4.43697319 267.18565533 -7.75 267.1875 C-8.89210937 267.19974609 -10.03421875 267.21199219 -11.2109375 267.22460938 C-22.95957342 267.24486564 -31.89476567 265.86320689 -40.60546875 257.44921875 C-45.73218212 251.63092527 -46.40249554 246.38228611 -46.24609375 238.875 C-45.79556449 233.61167407 -43.86234757 230.58867174 -40 227.1875 C-34.7071711 223.32814559 -29.36386084 223.1265289 -23 224 C-18.54766849 225.87031026 -16.54043118 228.76073539 -14.640625 233.1171875 C-13.80219447 235.39958171 -12.98543188 237.69006185 -12.19140625 239.98828125 C-10.4453743 244.40202104 -8.28481621 246.8575919 -4 249 C2.97725898 249.71651986 9.37792764 249.56154507 15 245 C23.45728403 235.05406138 23.14695656 221.65441167 23.55419922 209.29272461 C23.59630964 208.03025626 23.63842007 206.76778791 23.68180656 205.46706295 C24.16754338 189.92037801 24.14673761 174.37045853 24.1343255 158.81775022 C24.13173737 154.53897627 24.13415629 150.26020412 24.13571167 145.98143005 C24.13751205 138.82217006 24.1351808 131.66292051 24.13037109 124.50366211 C24.12490119 116.26735532 24.12671942 108.03107319 24.1321975 99.79476696 C24.13675267 92.6551669 24.13736838 85.51557421 24.13475883 78.37597317 C24.13321324 74.14050736 24.13295512 69.90505312 24.13629532 65.66958809 C24.13921043 61.69905578 24.13713239 57.72855507 24.13140106 53.75802612 C24.13009416 52.31419362 24.13043169 50.87035839 24.13266373 49.42652702 C24.14249893 42.41150941 24.04507675 35.40995739 23.67941284 28.40367126 C23.5941525 26.76937621 23.5941525 26.76937621 23.50716972 25.10206509 C22.63433535 19.76343997 20.37560111 15.54468535 16.08984375 12.1640625 C12.22582814 10.01176969 7.97466806 8.96702713 3.73046875 7.796875 C1 7 1 7 0 6 C0 4.02 0 2.04 0 0 Z " fill="#FFFFFF" transform="translate(170,269)"/>
</svg>
