<?xml version="1.0" standalone="no"?>
<!DOCTYPE svg PUBLIC "-//W3C//DTD SVG 20010904//EN"
 "http://www.w3.org/TR/2001/REC-SVG-20010904/DTD/svg10.dtd">
<svg version="1.0" xmlns="http://www.w3.org/2000/svg"
 width="408.000000pt" height="612.000000pt" viewBox="0 0 408.000000 612.000000"
 preserveAspectRatio="xMidYMid meet">

<g transform="translate(0.000000,612.000000) scale(0.100000,-0.100000)"
fill="#000000" stroke="none">
<path d="M2373 4106 c-186 -45 -325 -190 -354 -368 -30 -179 35 -336 183 -441
60 -42 92 -60 303 -172 247 -131 295 -181 295 -310 0 -102 -51 -177 -150 -223
-46 -21 -70 -25 -146 -26 -82 0 -96 2 -157 32 -113 56 -188 144 -257 305 -32
74 -35 77 -67 77 l-33 0 0 -196 0 -195 58 -26 c290 -128 556 -144 758 -44 200
99 302 315 250 532 -36 156 -108 217 -501 433 -176 96 -245 149 -273 210 -26
54 -29 137 -8 187 15 35 66 89 101 107 41 21 133 31 191 22 149 -24 250 -125
314 -315 16 -47 19 -50 54 -53 l36 -3 -2 197 -3 196 -100 29 c-198 58 -374 73
-492 45z"/>
<path d="M1280 4075 c0 -21 5 -25 28 -25 49 0 115 -41 137 -85 19 -39 20 -60
20 -770 0 -770 -2 -811 -46 -897 -26 -51 -87 -82 -146 -75 -59 6 -86 34 -106
107 -19 65 -48 90 -107 90 -81 0 -130 -51 -130 -136 0 -82 64 -151 160 -173
58 -13 172 -14 241 -1 191 35 354 201 409 416 19 73 20 112 20 723 0 442 4
659 11 686 16 56 68 102 124 111 39 5 45 10 45 30 l0 24 -330 0 -330 0 0 -25z"/>
</g>
</svg>
